<svg xmlns="http://www.w3.org/2000/svg" xmlns:xlink="http://www.w3.org/1999/xlink" width="2048" zoomAndPan="magnify" viewBox="0 0 1536 1535.999932" height="2048" preserveAspectRatio="xMidYMid meet" version="1.0"><path fill="#ff8c00" d="M 768 108.300781 C 482.917969 108.300781 250.828125 340.363281 250.828125 625.441406 C 250.828125 833.953125 375.894531 1029.300781 496.675781 1174.800781 C 617.464844 1320.289062 738.472656 1417.332031 738.472656 1417.332031 C 746.839844 1424.035156 757.257812 1427.691406 767.992188 1427.691406 C 778.714844 1427.691406 789.132812 1424.035156 797.511719 1417.332031 C 797.511719 1417.332031 918.503906 1320.300781 1039.304688 1174.800781 C 1160.089844 1029.3125 1285.136719 833.96875 1285.136719 625.441406 C 1285.136719 340.359375 1053.0625 108.300781 768 108.300781 Z M 768 202.765625 C 1002.023438 202.765625 1190.699219 391.425781 1190.699219 625.464844 C 1190.699219 794.8125 1080.8125 976.945312 966.628906 1114.492188 C 876.085938 1223.527344 801.578125 1288.984375 768.007812 1317.523438 C 734.421875 1288.988281 659.914062 1223.527344 569.386719 1114.480469 C 455.199219 976.9375 345.3125 794.800781 345.3125 625.453125 C 345.3125 391.429688 533.972656 202.78125 768.011719 202.78125 Z M 768 202.765625 " fill-opacity="1" fill-rule="nonzero"/><path fill="#ff8c00" d="M 768 342.058594 C 709.007812 342.058594 653.765625 360.28125 608.320312 391.324219 L 608.308594 391.324219 C 597.984375 398.390625 590.882812 409.265625 588.5625 421.558594 C 586.242188 433.863281 588.902344 446.578125 595.945312 456.914062 C 603.011719 467.273438 613.910156 474.386719 626.226562 476.707031 C 638.542969 479.027344 651.28125 476.355469 661.628906 469.277344 C 691.957031 448.558594 728.308594 436.523438 768 436.523438 C 872.90625 436.523438 956.929688 520.546875 956.929688 625.457031 C 956.929688 730.363281 872.90625 814.386719 768 814.386719 C 663.09375 814.386719 579.070312 730.363281 579.070312 625.457031 C 579.070312 618.449219 579.445312 611.582031 580.171875 604.796875 C 581.542969 592.328125 577.898438 579.824219 570.046875 570.050781 C 562.183594 560.265625 550.757812 554.019531 538.289062 552.671875 C 525.832031 551.324219 513.363281 554.980469 503.601562 562.84375 C 493.851562 570.695312 487.605469 582.097656 486.257812 594.550781 C 485.15625 604.710938 484.605469 615.023438 484.605469 625.453125 C 484.605469 781.40625 612.046875 908.851562 768 908.851562 C 923.957031 908.851562 1051.394531 781.410156 1051.394531 625.453125 C 1051.394531 469.5 923.957031 342.058594 768 342.058594 Z M 768 342.058594 " fill-opacity="1" fill-rule="nonzero"/></svg>